<?xml version="1.0" encoding="UTF-8" standalone="no"?>
<!DOCTYPE svg PUBLIC "-//W3C//DTD SVG 1.1//EN" "http://www.w3.org/Graphics/SVG/1.1/DTD/svg11.dtd">
<svg width="100%" height="100%" viewBox="0 0 766 118" version="1.1" xmlns="http://www.w3.org/2000/svg" xmlns:xlink="http://www.w3.org/1999/xlink" xml:space="preserve" xmlns:serif="http://www.serif.com/" style="fill-rule:evenodd;clip-rule:evenodd;stroke-linejoin:round;stroke-miterlimit:2;">
    <g transform="matrix(1,0,0,1,-220.705,-254.165)">
        <g transform="matrix(1,0,0,1,37.2545,65.5807)">
            <g transform="matrix(100,0,0,100,403.808,282.371)">
                <path d="M0.185,-0.11L0.495,-0.11L0.495,-0L0.07,-0L0.07,-0.7L0.49,-0.7L0.49,-0.59L0.185,-0.59L0.185,-0.408L0.465,-0.408L0.465,-0.299L0.185,-0.299L0.185,-0.11Z" style="fill:#fff;fill-rule:nonzero;"/>
            </g>
            <g transform="matrix(100,0,0,100,456.808,282.371)">
                <rect x="0.063" y="-0.73" width="0.108" height="0.73" style="fill:#fff;fill-rule:nonzero;"/>
            </g>
            <g transform="matrix(100,0,0,100,480.108,282.371)">
                <path d="M0.148,-0.204C0.156,-0.166 0.174,-0.137 0.203,-0.117C0.232,-0.096 0.267,-0.086 0.308,-0.086C0.365,-0.086 0.408,-0.107 0.437,-0.148L0.526,-0.096C0.477,-0.023 0.404,0.013 0.307,0.013C0.226,0.013 0.16,-0.012 0.11,-0.062C0.06,-0.111 0.035,-0.174 0.035,-0.25C0.035,-0.325 0.06,-0.387 0.109,-0.438C0.158,-0.488 0.222,-0.513 0.299,-0.513C0.372,-0.513 0.433,-0.487 0.48,-0.436C0.527,-0.385 0.55,-0.322 0.55,-0.249C0.55,-0.238 0.549,-0.223 0.546,-0.204L0.148,-0.204ZM0.147,-0.292L0.441,-0.292C0.434,-0.333 0.417,-0.363 0.391,-0.384C0.364,-0.405 0.333,-0.415 0.298,-0.415C0.258,-0.415 0.225,-0.404 0.198,-0.382C0.171,-0.36 0.154,-0.33 0.147,-0.292Z" style="fill:#fff;fill-rule:nonzero;"/>
            </g>
            <g transform="matrix(100,0,0,100,538.008,282.371)">
                <path d="M0.461,-0.5L0.567,-0.5L0.567,-0.023C0.567,0.053 0.542,0.111 0.492,0.152C0.442,0.193 0.381,0.213 0.31,0.213C0.195,0.213 0.116,0.173 0.073,0.092L0.166,0.038C0.192,0.089 0.241,0.115 0.312,0.115C0.359,0.115 0.395,0.103 0.422,0.079C0.448,0.054 0.461,0.02 0.461,-0.023L0.461,-0.084C0.42,-0.026 0.362,0.003 0.287,0.003C0.216,0.003 0.157,-0.022 0.108,-0.073C0.059,-0.123 0.035,-0.184 0.035,-0.255C0.035,-0.326 0.059,-0.387 0.108,-0.438C0.157,-0.488 0.216,-0.513 0.287,-0.513C0.362,-0.513 0.42,-0.484 0.461,-0.426L0.461,-0.5ZM0.188,-0.143C0.219,-0.113 0.257,-0.098 0.302,-0.098C0.347,-0.098 0.385,-0.113 0.416,-0.143C0.446,-0.173 0.461,-0.21 0.461,-0.255C0.461,-0.3 0.446,-0.337 0.416,-0.367C0.385,-0.397 0.347,-0.412 0.302,-0.412C0.257,-0.412 0.219,-0.397 0.189,-0.367C0.158,-0.337 0.143,-0.3 0.143,-0.255C0.143,-0.21 0.158,-0.173 0.188,-0.143Z" style="fill:#fff;fill-rule:nonzero;"/>
            </g>
            <g transform="matrix(100,0,0,100,601.008,282.371)">
                <path d="M0.459,-0.5L0.567,-0.5L0.567,-0L0.459,-0L0.459,-0.072C0.418,-0.015 0.36,0.013 0.284,0.013C0.215,0.013 0.157,-0.012 0.108,-0.064C0.059,-0.115 0.035,-0.177 0.035,-0.25C0.035,-0.324 0.059,-0.386 0.108,-0.437C0.157,-0.488 0.215,-0.513 0.284,-0.513C0.36,-0.513 0.418,-0.485 0.459,-0.429L0.459,-0.5ZM0.188,-0.135C0.218,-0.105 0.256,-0.09 0.301,-0.09C0.346,-0.09 0.384,-0.105 0.414,-0.136C0.444,-0.166 0.459,-0.204 0.459,-0.25C0.459,-0.296 0.444,-0.334 0.414,-0.365C0.384,-0.395 0.346,-0.41 0.301,-0.41C0.256,-0.41 0.218,-0.395 0.188,-0.365C0.158,-0.334 0.143,-0.296 0.143,-0.25C0.143,-0.204 0.158,-0.166 0.188,-0.135Z" style="fill:#fff;fill-rule:nonzero;"/>
            </g>
            <g transform="matrix(100,0,0,100,664.008,282.371)">
                <path d="M0.326,-0.513C0.383,-0.513 0.43,-0.495 0.465,-0.458C0.5,-0.421 0.518,-0.371 0.518,-0.307L0.518,-0L0.41,-0L0.41,-0.296C0.41,-0.333 0.4,-0.362 0.38,-0.382C0.36,-0.402 0.333,-0.412 0.298,-0.412C0.26,-0.412 0.229,-0.4 0.206,-0.377C0.183,-0.353 0.171,-0.317 0.171,-0.268L0.171,-0L0.063,-0L0.063,-0.5L0.171,-0.5L0.171,-0.436C0.204,-0.487 0.255,-0.513 0.326,-0.513Z" style="fill:#fff;fill-rule:nonzero;"/>
            </g>
            <g transform="matrix(100,0,0,100,721.108,282.371)">
                <path d="M0.342,-0.396L0.218,-0.396L0.218,-0.156C0.218,-0.135 0.223,-0.121 0.232,-0.112C0.241,-0.102 0.255,-0.097 0.274,-0.097C0.292,-0.095 0.315,-0.096 0.342,-0.097L0.342,-0C0.259,0.01 0.2,0.003 0.164,-0.022C0.128,-0.046 0.11,-0.091 0.11,-0.156L0.11,-0.396L0.018,-0.396L0.018,-0.5L0.11,-0.5L0.11,-0.608L0.218,-0.64L0.218,-0.5L0.342,-0.5L0.342,-0.396Z" style="fill:#fff;fill-rule:nonzero;"/>
            </g>
            <g transform="matrix(100,0,0,100,759.308,282.371)">
                <path d="M0.655,-0.092C0.585,-0.022 0.499,0.013 0.398,0.013C0.297,0.013 0.211,-0.022 0.141,-0.093C0.07,-0.163 0.035,-0.249 0.035,-0.35C0.035,-0.451 0.07,-0.537 0.141,-0.608C0.211,-0.678 0.297,-0.713 0.398,-0.713C0.499,-0.713 0.585,-0.678 0.656,-0.608C0.726,-0.537 0.761,-0.451 0.761,-0.35C0.761,-0.249 0.726,-0.163 0.655,-0.092ZM0.221,-0.17C0.269,-0.123 0.328,-0.099 0.398,-0.099C0.468,-0.099 0.527,-0.123 0.575,-0.171C0.622,-0.218 0.646,-0.278 0.646,-0.35C0.646,-0.422 0.622,-0.482 0.575,-0.53C0.527,-0.577 0.468,-0.601 0.398,-0.601C0.328,-0.601 0.269,-0.577 0.222,-0.53C0.174,-0.482 0.15,-0.422 0.15,-0.35C0.15,-0.278 0.174,-0.218 0.221,-0.17Z" style="fill:#fff;fill-rule:nonzero;"/>
            </g>
            <g transform="matrix(100,0,0,100,834.908,282.371)">
                <path d="M0.525,-0.7L0.525,-0.59L0.328,-0.59L0.328,-0L0.213,-0L0.213,-0.59L0.015,-0.59L0.015,-0.7L0.525,-0.7Z" style="fill:#fff;fill-rule:nonzero;"/>
            </g>
            <g transform="matrix(100,0,0,100,883.908,282.371)">
                <path d="M0.526,-0L0.477,-0.141L0.179,-0.141L0.13,-0L0.005,-0L0.259,-0.7L0.397,-0.7L0.65,-0L0.526,-0ZM0.217,-0.249L0.439,-0.249L0.328,-0.565L0.217,-0.249Z" style="fill:#fff;fill-rule:nonzero;"/>
            </g>
        </g>
        <g id="fetchpik.com-PpQLrSX5kV.svg" transform="matrix(0.314451,0,0,0.314451,302.862,313.149)">
            <g transform="matrix(1,0,0,1,-261.272,-187.576)">
                <clipPath id="_clip1">
                    <rect x="0" y="0" width="522.543" height="375.152"/>
                </clipPath>
                <g clip-path="url(#_clip1)">
                    <g transform="matrix(1,0,0,1,-346,-418)">
                        <path d="M551.5,434C593.2,438.7 627.9,454.7 655,481.9C668.5,495.5 676.6,506.6 684.8,522.8C694.5,541.8 699.7,558.6 702.5,579.9C704,590.9 704.5,614.3 703.4,622.4L702.7,627L544.9,627L545.6,630.7C549.7,653.5 562.2,678.4 578,695.3C594.7,713.1 619.3,726.8 643.6,731.7C654.4,733.8 683,734.1 693,732.1C744.1,722.1 780.3,684.1 790.6,629.5C792.9,617.3 793,591.8 790.7,579.3C784.4,544.7 765.5,513.8 739.9,496.3C720,482.7 699,475.9 673.3,474.7L665.1,474.3L658.2,467.9C649.5,459.8 638.2,451.7 626.1,444.9L616.7,439.5L620.7,438.4C642.7,432 679.4,431.5 707.5,437.1C744.5,444.5 779,465.3 803,494.5C823.1,519.1 837.4,554.7 839.5,586C839.8,590.7 840.3,596.4 840.5,598.8C841.1,605.2 839.3,629.3 837.5,639C827.7,691.1 796.4,734.2 752.2,756.4C725.4,769.8 702.2,775.1 669.5,775.1C636.5,775.1 610.9,769.2 583.9,755.4C568.8,747.7 557.3,739.3 545,727C531.9,713.9 522.9,701.3 514.6,684.5C504.4,664 499.3,646.1 496.9,622.3C495.8,611.9 496.2,582 497.5,580C497.9,579.4 526,579 576.1,579C637.7,579 654,578.7 654,577.7C654,575.1 649,558 646,550.5C630.5,511.5 596.6,483.7 555.5,476.5C543.6,474.4 518.5,474.4 506.5,476.5C445.3,487.2 404.7,541.7 407.3,609.5C408.2,631.4 412.1,647.3 421.2,665.4C427.6,678.3 433.4,686.4 443.9,697.3C464.9,719 492.5,731.5 524.1,733.6L534.5,734.3L540.5,739.8C551.3,749.8 578,768 581.9,768C582.5,768 583,768.4 583,768.8C583,769.7 570.8,772.2 558,774C548.1,775.4 518.2,775.4 507.8,774C448.6,766 401.7,733.3 377.3,683C369,665.9 364.2,649.8 361.4,630.1C359,612.9 359.9,582.9 363.4,566.4C373.1,520.5 397.1,484 433,460.7C455.7,446 481.5,436.9 508.5,434.1C520,432.9 541,432.9 551.5,434Z" style="fill:#1e63e7;fill-rule:nonzero;"/>
                    </g>
                    <g id="Artboard2" transform="matrix(1.0278,0,0,1.03887,-41.0844,-27.2909)">
                        <rect x="39.973" y="26.27" width="508.409" height="361.116" style="fill:none;"/>
                    </g>
                </g>
            </g>
        </g>
    </g>
</svg>
